<mxfile host="app.diagrams.net" modified="2022-08-20T03:33:28.577Z" agent="5.0 (Macintosh; Intel Mac OS X 10_15_7) AppleWebKit/537.36 (KHTML, like Gecko) Chrome/104.0.0.0 Safari/537.36" etag="RKJSJv7MZ_g0fST-TBqR" version="20.2.5" type="github">
  <diagram id="OzPxZhJbJQ3Oz49poNnP" name="Page-1">
    <mxGraphModel dx="2139" dy="743" grid="1" gridSize="10" guides="1" tooltips="1" connect="1" arrows="1" fold="1" page="1" pageScale="1" pageWidth="850" pageHeight="1100" math="0" shadow="0">
      <root>
        <mxCell id="0" />
        <mxCell id="1" parent="0" />
        <mxCell id="uLvK7-7gJlz77ZkVZZY1-5" value="" style="shape=partialRectangle;whiteSpace=wrap;html=1;left=0;right=0;fillColor=none;" parent="1" vertex="1">
          <mxGeometry x="-120" y="150" width="960" height="1320" as="geometry" />
        </mxCell>
        <mxCell id="uLvK7-7gJlz77ZkVZZY1-6" value="" style="shape=partialRectangle;whiteSpace=wrap;html=1;bottom=0;top=0;fillColor=none;" parent="1" vertex="1">
          <mxGeometry x="-115.62" y="150" width="955.62" height="1320" as="geometry" />
        </mxCell>
        <mxCell id="uLvK7-7gJlz77ZkVZZY1-8" value="Start" style="ellipse;whiteSpace=wrap;html=1;aspect=fixed;" parent="1" vertex="1">
          <mxGeometry x="520" y="200" width="80" height="80" as="geometry" />
        </mxCell>
        <mxCell id="uLvK7-7gJlz77ZkVZZY1-9" value="Lambda (Takes the order and payement details" style="label;whiteSpace=wrap;html=1;image=img/clipart/Gear_128x128.png" parent="1" vertex="1">
          <mxGeometry x="330" y="20" width="160" height="80" as="geometry" />
        </mxCell>
        <mxCell id="uLvK7-7gJlz77ZkVZZY1-11" value="AWS &lt;br&gt;Step Functions" style="text;html=1;align=center;verticalAlign=middle;resizable=0;points=[];autosize=1;strokeColor=none;fillColor=none;" parent="1" vertex="1">
          <mxGeometry x="-80" y="115" width="100" height="40" as="geometry" />
        </mxCell>
        <mxCell id="uLvK7-7gJlz77ZkVZZY1-12" value="" style="endArrow=classic;html=1;rounded=0;exitX=0.5;exitY=1;exitDx=0;exitDy=0;entryX=0.566;entryY=0;entryDx=0;entryDy=0;entryPerimeter=0;" parent="1" source="uLvK7-7gJlz77ZkVZZY1-9" target="uLvK7-7gJlz77ZkVZZY1-6" edge="1">
          <mxGeometry width="50" height="50" relative="1" as="geometry">
            <mxPoint x="300" y="290" as="sourcePoint" />
            <mxPoint x="300" y="160" as="targetPoint" />
          </mxGeometry>
        </mxCell>
        <mxCell id="uLvK7-7gJlz77ZkVZZY1-13" value="Validate Order and Create order in Pending" style="label;whiteSpace=wrap;html=1;image=img/clipart/Gear_128x128.png" parent="1" vertex="1">
          <mxGeometry x="490" y="310" width="140" height="60" as="geometry" />
        </mxCell>
        <mxCell id="uLvK7-7gJlz77ZkVZZY1-14" value="" style="strokeWidth=2;html=1;shape=mxgraph.flowchart.annotation_2;align=left;labelPosition=right;pointerEvents=1;rotation=90;" parent="1" vertex="1">
          <mxGeometry x="535" y="250" width="50" height="290" as="geometry" />
        </mxCell>
        <mxCell id="uLvK7-7gJlz77ZkVZZY1-15" value="Pass" style="text;html=1;strokeColor=none;fillColor=none;align=center;verticalAlign=middle;whiteSpace=wrap;rounded=0;" parent="1" vertex="1">
          <mxGeometry x="420" y="370" width="60" height="30" as="geometry" />
        </mxCell>
        <mxCell id="uLvK7-7gJlz77ZkVZZY1-16" value="Fail" style="text;html=1;strokeColor=none;fillColor=none;align=center;verticalAlign=middle;whiteSpace=wrap;rounded=0;" parent="1" vertex="1">
          <mxGeometry x="630" y="370" width="60" height="30" as="geometry" />
        </mxCell>
        <mxCell id="uLvK7-7gJlz77ZkVZZY1-18" value="Reserve Order" style="label;whiteSpace=wrap;html=1;image=img/clipart/Gear_128x128.png" parent="1" vertex="1">
          <mxGeometry x="350" y="420" width="140" height="60" as="geometry" />
        </mxCell>
        <mxCell id="uLvK7-7gJlz77ZkVZZY1-19" value="" style="strokeWidth=2;html=1;shape=mxgraph.flowchart.annotation_2;align=left;labelPosition=right;pointerEvents=1;rotation=90;" parent="1" vertex="1">
          <mxGeometry x="352.75" y="407.25" width="50" height="193.5" as="geometry" />
        </mxCell>
        <mxCell id="uLvK7-7gJlz77ZkVZZY1-20" value="Process Payment&amp;nbsp;" style="label;whiteSpace=wrap;html=1;image=img/clipart/Gear_128x128.png" parent="1" vertex="1">
          <mxGeometry x="220" y="530" width="140" height="60" as="geometry" />
        </mxCell>
        <mxCell id="uLvK7-7gJlz77ZkVZZY1-21" value="Update Order with Payment Details" style="label;whiteSpace=wrap;html=1;image=img/clipart/Gear_128x128.png" parent="1" vertex="1">
          <mxGeometry x="120" y="660" width="140" height="60" as="geometry" />
        </mxCell>
        <mxCell id="uLvK7-7gJlz77ZkVZZY1-22" value="" style="strokeWidth=2;html=1;shape=mxgraph.flowchart.annotation_2;align=left;labelPosition=right;pointerEvents=1;rotation=90;" parent="1" vertex="1">
          <mxGeometry x="223.13" y="555.63" width="72.5" height="141.25" as="geometry" />
        </mxCell>
        <mxCell id="uLvK7-7gJlz77ZkVZZY1-23" value="" style="strokeWidth=2;html=1;shape=mxgraph.flowchart.annotation_2;align=left;labelPosition=right;pointerEvents=1;rotation=90;" parent="1" vertex="1">
          <mxGeometry x="147.5" y="665.32" width="80" height="193.12" as="geometry" />
        </mxCell>
        <mxCell id="uLvK7-7gJlz77ZkVZZY1-24" value="DHL Delivery" style="label;whiteSpace=wrap;html=1;image=img/clipart/Gear_128x128.png" parent="1" vertex="1">
          <mxGeometry x="30" y="800" width="140" height="60" as="geometry" />
        </mxCell>
        <mxCell id="uLvK7-7gJlz77ZkVZZY1-25" value="" style="strokeWidth=2;html=1;shape=mxgraph.flowchart.annotation_2;align=left;labelPosition=right;pointerEvents=1;rotation=90;" parent="1" vertex="1">
          <mxGeometry x="70" y="800" width="50" height="170" as="geometry" />
        </mxCell>
        <mxCell id="uLvK7-7gJlz77ZkVZZY1-26" value="Hubspot Lead Generation&lt;br&gt;" style="label;whiteSpace=wrap;html=1;image=img/clipart/Gear_128x128.png" parent="1" vertex="1">
          <mxGeometry x="-50" y="910" width="140" height="60" as="geometry" />
        </mxCell>
        <mxCell id="uLvK7-7gJlz77ZkVZZY1-27" value="Release Order" style="label;whiteSpace=wrap;html=1;image=img/clipart/Gear_128x128.png" parent="1" vertex="1">
          <mxGeometry x="420" y="870" width="140" height="60" as="geometry" />
        </mxCell>
        <mxCell id="uLvK7-7gJlz77ZkVZZY1-28" value="Reverse Payment" style="label;whiteSpace=wrap;html=1;image=img/clipart/Gear_128x128.png" parent="1" vertex="1">
          <mxGeometry x="275.5" y="1050" width="140" height="60" as="geometry" />
        </mxCell>
        <mxCell id="uLvK7-7gJlz77ZkVZZY1-29" value="Marks as Cancelled" style="label;whiteSpace=wrap;html=1;image=img/clipart/Gear_128x128.png" parent="1" vertex="1">
          <mxGeometry x="585" y="1060" width="140" height="60" as="geometry" />
        </mxCell>
        <mxCell id="uLvK7-7gJlz77ZkVZZY1-31" value="" style="endArrow=classic;html=1;rounded=0;exitX=1;exitY=0;exitDx=0;exitDy=0;exitPerimeter=0;entryX=0.814;entryY=0.008;entryDx=0;entryDy=0;entryPerimeter=0;" parent="1" target="uLvK7-7gJlz77ZkVZZY1-29" edge="1">
          <mxGeometry width="50" height="50" relative="1" as="geometry">
            <mxPoint x="704" y="417" as="sourcePoint" />
            <mxPoint x="700" y="980" as="targetPoint" />
          </mxGeometry>
        </mxCell>
        <mxCell id="uLvK7-7gJlz77ZkVZZY1-32" value="" style="endArrow=classic;html=1;rounded=0;exitX=1;exitY=0;exitDx=0;exitDy=0;exitPerimeter=0;entryX=0.393;entryY=-0.025;entryDx=0;entryDy=0;entryPerimeter=0;" parent="1" source="uLvK7-7gJlz77ZkVZZY1-19" target="uLvK7-7gJlz77ZkVZZY1-27" edge="1">
          <mxGeometry width="50" height="50" relative="1" as="geometry">
            <mxPoint x="340" y="770" as="sourcePoint" />
            <mxPoint x="390" y="720" as="targetPoint" />
          </mxGeometry>
        </mxCell>
        <mxCell id="uLvK7-7gJlz77ZkVZZY1-38" value="" style="strokeWidth=2;html=1;shape=mxgraph.flowchart.annotation_2;align=left;labelPosition=right;pointerEvents=1;rotation=0;direction=south;" parent="1" vertex="1">
          <mxGeometry x="340" y="930" width="300" height="130" as="geometry" />
        </mxCell>
        <mxCell id="uLvK7-7gJlz77ZkVZZY1-39" value="Put paymentStatus&amp;nbsp; as &lt;b&gt;one of the output Node&lt;/b&gt; from Previous Lambda&amp;nbsp; and Check for Payment Status Node from Input&amp;nbsp; payload, if Payment is&amp;nbsp;" style="text;html=1;strokeColor=none;fillColor=none;align=center;verticalAlign=middle;whiteSpace=wrap;rounded=0;" parent="1" vertex="1">
          <mxGeometry x="560" y="870" width="60" height="30" as="geometry" />
        </mxCell>
        <mxCell id="uLvK7-7gJlz77ZkVZZY1-41" value="DONE" style="text;html=1;strokeColor=none;fillColor=none;align=center;verticalAlign=middle;whiteSpace=wrap;rounded=0;" parent="1" vertex="1">
          <mxGeometry x="355.5" y="970" width="60" height="30" as="geometry" />
        </mxCell>
        <mxCell id="uLvK7-7gJlz77ZkVZZY1-42" value="NOT DONE" style="text;html=1;strokeColor=none;fillColor=none;align=center;verticalAlign=middle;whiteSpace=wrap;rounded=0;" parent="1" vertex="1">
          <mxGeometry x="540" y="970" width="80" height="30" as="geometry" />
        </mxCell>
        <mxCell id="uLvK7-7gJlz77ZkVZZY1-43" value="" style="endArrow=classic;html=1;rounded=0;entryX=0;entryY=0.5;entryDx=0;entryDy=0;" parent="1" target="uLvK7-7gJlz77ZkVZZY1-29" edge="1">
          <mxGeometry width="50" height="50" relative="1" as="geometry">
            <mxPoint x="410" y="1090" as="sourcePoint" />
            <mxPoint x="370" y="940" as="targetPoint" />
          </mxGeometry>
        </mxCell>
        <mxCell id="uLvK7-7gJlz77ZkVZZY1-44" value="payment: false" style="text;html=1;strokeColor=none;fillColor=none;align=center;verticalAlign=middle;whiteSpace=wrap;rounded=0;" parent="1" vertex="1">
          <mxGeometry x="470" y="480" width="60" height="30" as="geometry" />
        </mxCell>
        <mxCell id="uLvK7-7gJlz77ZkVZZY1-45" style="edgeStyle=orthogonalEdgeStyle;rounded=0;orthogonalLoop=1;jettySize=auto;html=1;" parent="1" source="uLvK7-7gJlz77ZkVZZY1-39" target="uLvK7-7gJlz77ZkVZZY1-39" edge="1">
          <mxGeometry relative="1" as="geometry" />
        </mxCell>
        <mxCell id="uLvK7-7gJlz77ZkVZZY1-47" value="payment: false" style="text;html=1;strokeColor=none;fillColor=none;align=center;verticalAlign=middle;whiteSpace=wrap;rounded=0;" parent="1" vertex="1">
          <mxGeometry x="315.5" y="600.75" width="60" height="30" as="geometry" />
        </mxCell>
        <mxCell id="uLvK7-7gJlz77ZkVZZY1-50" value="" style="edgeStyle=elbowEdgeStyle;elbow=horizontal;endArrow=classic;html=1;rounded=0;entryX=0;entryY=0.25;entryDx=0;entryDy=0;" parent="1" target="uLvK7-7gJlz77ZkVZZY1-27" edge="1">
          <mxGeometry width="50" height="50" relative="1" as="geometry">
            <mxPoint x="330" y="660" as="sourcePoint" />
            <mxPoint x="380" y="610" as="targetPoint" />
          </mxGeometry>
        </mxCell>
        <mxCell id="uLvK7-7gJlz77ZkVZZY1-51" value="payment: true" style="text;html=1;strokeColor=none;fillColor=none;align=center;verticalAlign=middle;whiteSpace=wrap;rounded=0;" parent="1" vertex="1">
          <mxGeometry x="229.38" y="730" width="60" height="30" as="geometry" />
        </mxCell>
        <mxCell id="uLvK7-7gJlz77ZkVZZY1-52" value="" style="edgeStyle=segmentEdgeStyle;endArrow=classic;html=1;rounded=0;exitX=1;exitY=0;exitDx=0;exitDy=0;exitPerimeter=0;" parent="1" source="uLvK7-7gJlz77ZkVZZY1-23" edge="1">
          <mxGeometry width="50" height="50" relative="1" as="geometry">
            <mxPoint x="290" y="800" as="sourcePoint" />
            <mxPoint x="420" y="900" as="targetPoint" />
            <Array as="points">
              <mxPoint x="284" y="900" />
              <mxPoint x="420" y="900" />
            </Array>
          </mxGeometry>
        </mxCell>
        <mxCell id="uLvK7-7gJlz77ZkVZZY1-53" value="payment: true" style="text;html=1;strokeColor=none;fillColor=none;align=center;verticalAlign=middle;whiteSpace=wrap;rounded=0;" parent="1" vertex="1">
          <mxGeometry x="163.13" y="860" width="60" height="30" as="geometry" />
        </mxCell>
        <mxCell id="uLvK7-7gJlz77ZkVZZY1-54" value="" style="edgeStyle=segmentEdgeStyle;endArrow=classic;html=1;rounded=0;exitX=1;exitY=0;exitDx=0;exitDy=0;exitPerimeter=0;" parent="1" source="uLvK7-7gJlz77ZkVZZY1-25" edge="1">
          <mxGeometry width="50" height="50" relative="1" as="geometry">
            <mxPoint x="270" y="900" as="sourcePoint" />
            <mxPoint x="420" y="910" as="targetPoint" />
            <Array as="points">
              <mxPoint x="420" y="910" />
            </Array>
          </mxGeometry>
        </mxCell>
        <mxCell id="uLvK7-7gJlz77ZkVZZY1-55" value="End" style="ellipse;shape=doubleEllipse;whiteSpace=wrap;html=1;aspect=fixed;" parent="1" vertex="1">
          <mxGeometry x="-20" y="1020" width="80" height="80" as="geometry" />
        </mxCell>
        <mxCell id="uLvK7-7gJlz77ZkVZZY1-58" value="" style="endArrow=classic;html=1;rounded=0;entryX=0.5;entryY=0;entryDx=0;entryDy=0;exitX=0.5;exitY=1;exitDx=0;exitDy=0;" parent="1" source="uLvK7-7gJlz77ZkVZZY1-26" target="uLvK7-7gJlz77ZkVZZY1-55" edge="1">
          <mxGeometry width="50" height="50" relative="1" as="geometry">
            <mxPoint x="270" y="890" as="sourcePoint" />
            <mxPoint x="320" y="840" as="targetPoint" />
          </mxGeometry>
        </mxCell>
        <mxCell id="uLvK7-7gJlz77ZkVZZY1-59" value="End" style="ellipse;whiteSpace=wrap;html=1;aspect=fixed;" parent="1" vertex="1">
          <mxGeometry x="-20" y="1020" width="80" height="80" as="geometry" />
        </mxCell>
        <mxCell id="uLvK7-7gJlz77ZkVZZY1-60" value="End" style="ellipse;whiteSpace=wrap;html=1;aspect=fixed;" parent="1" vertex="1">
          <mxGeometry x="630" y="1160" width="80" height="80" as="geometry" />
        </mxCell>
        <mxCell id="uLvK7-7gJlz77ZkVZZY1-62" value="" style="endArrow=classic;html=1;rounded=0;" parent="1" source="uLvK7-7gJlz77ZkVZZY1-8" target="uLvK7-7gJlz77ZkVZZY1-13" edge="1">
          <mxGeometry width="50" height="50" relative="1" as="geometry">
            <mxPoint x="440" y="530" as="sourcePoint" />
            <mxPoint x="490" y="480" as="targetPoint" />
          </mxGeometry>
        </mxCell>
        <mxCell id="uLvK7-7gJlz77ZkVZZY1-63" value="" style="endArrow=classic;html=1;rounded=0;" parent="1" target="uLvK7-7gJlz77ZkVZZY1-60" edge="1">
          <mxGeometry width="50" height="50" relative="1" as="geometry">
            <mxPoint x="670" y="1120" as="sourcePoint" />
            <mxPoint x="490" y="970" as="targetPoint" />
          </mxGeometry>
        </mxCell>
        <mxCell id="uLvK7-7gJlz77ZkVZZY1-64" value="Pass" style="text;html=1;strokeColor=none;fillColor=none;align=center;verticalAlign=middle;whiteSpace=wrap;rounded=0;" parent="1" vertex="1">
          <mxGeometry x="300" y="480" width="60" height="30" as="geometry" />
        </mxCell>
        <mxCell id="uLvK7-7gJlz77ZkVZZY1-65" value="Fail" style="text;html=1;strokeColor=none;fillColor=none;align=center;verticalAlign=middle;whiteSpace=wrap;rounded=0;" parent="1" vertex="1">
          <mxGeometry x="406" y="480" width="60" height="30" as="geometry" />
        </mxCell>
        <mxCell id="uLvK7-7gJlz77ZkVZZY1-67" value="Pass" style="text;html=1;strokeColor=none;fillColor=none;align=center;verticalAlign=middle;whiteSpace=wrap;rounded=0;" parent="1" vertex="1">
          <mxGeometry x="210" y="600.75" width="30" height="30" as="geometry" />
        </mxCell>
        <mxCell id="uLvK7-7gJlz77ZkVZZY1-68" value="Fail" style="text;html=1;strokeColor=none;fillColor=none;align=center;verticalAlign=middle;whiteSpace=wrap;rounded=0;" parent="1" vertex="1">
          <mxGeometry x="267.38" y="600.75" width="60" height="30" as="geometry" />
        </mxCell>
        <mxCell id="uLvK7-7gJlz77ZkVZZY1-69" value="Pass" style="text;html=1;strokeColor=none;fillColor=none;align=center;verticalAlign=middle;whiteSpace=wrap;rounded=0;" parent="1" vertex="1">
          <mxGeometry x="122.62" y="740" width="30" height="30" as="geometry" />
        </mxCell>
        <mxCell id="uLvK7-7gJlz77ZkVZZY1-70" value="Fail" style="text;html=1;strokeColor=none;fillColor=none;align=center;verticalAlign=middle;whiteSpace=wrap;rounded=0;" parent="1" vertex="1">
          <mxGeometry x="180" y="740" width="60" height="30" as="geometry" />
        </mxCell>
        <mxCell id="uLvK7-7gJlz77ZkVZZY1-72" value="Pass" style="text;html=1;strokeColor=none;fillColor=none;align=center;verticalAlign=middle;whiteSpace=wrap;rounded=0;" parent="1" vertex="1">
          <mxGeometry x="35.24000000000001" y="860" width="30" height="30" as="geometry" />
        </mxCell>
        <mxCell id="uLvK7-7gJlz77ZkVZZY1-73" value="Fail" style="text;html=1;strokeColor=none;fillColor=none;align=center;verticalAlign=middle;whiteSpace=wrap;rounded=0;" parent="1" vertex="1">
          <mxGeometry x="92.62" y="860" width="60" height="30" as="geometry" />
        </mxCell>
      </root>
    </mxGraphModel>
  </diagram>
</mxfile>
